<svg xmlns="http://www.w3.org/2000/svg" xmlns:xlink="http://www.w3.org/1999/xlink" viewBox="0 0 1366 751.87"><defs><style>.cls-1{fill:url(#linear-gradient);}</style><linearGradient id="linear-gradient" x1="853.36" y1="253.67" x2="278.41" y2="666.26" gradientUnits="userSpaceOnUse"><stop offset="0" stop-color="#2aa9ff"/><stop offset="1" stop-color="#3fffec"/></linearGradient></defs><title>Asset 3</title><g id="Layer_2" data-name="Layer 2"><g id="Layer_1-2" data-name="Layer 1"><path class="cls-1" d="M125.19,718.9c43.89-.93,79.64,11.18,120.83,24.78,6,2,12.16,4,18.5,4,10.32.07,19.85-5,29.17-9.46,69.14-32.87,152.78-33.6,222.49-1.94,7.28,3.3,14.73,7,22.72,7,8.5,0,16.32-4.29,23.92-8.09,74.61-37.22,166.78-37,241.23.52,6.83,3.44,13.79,7.26,21.43,7.67,8.9.48,17.28-3.72,25.39-7.41,64.33-29.23,140.72-30.7,206.13-4,32.92,13.46,43.92,17.62,75.69,6.55s62.91-18.89,96.7-19.61A274.7,274.7,0,0,1,1366,751.84V364s-8-129-301-135S683,0,683,0H0V751.87A274.8,274.8,0,0,1,125.19,718.9Z"/></g></g></svg>